<svg width="256" height="256" viewBox="0 0 256 256" fill="none" xmlns="http://www.w3.org/2000/svg">
<rect width="256" height="256" rx="18" fill="url(#paint0_linear_1962_9544)"/>
<path d="M54.4653 140.973L72.3197 78.0569C72.8154 76.1824 73.7944 74.4729 75.1575 73.1014C76.5206 71.7298 78.2195 70.7448 80.0825 70.246L143.194 54.3119C145.059 53.858 147.01 53.9001 148.854 54.4342C150.698 54.9683 152.372 55.9759 153.712 57.3581L198.931 104.223C200.266 105.608 201.214 107.324 201.678 109.196C202.141 111.069 202.104 113.032 201.57 114.885L183.793 178.231C183.312 180.113 182.338 181.83 180.973 183.204C179.607 184.578 177.901 185.558 176.03 186.042L112.88 201.664C111.019 202.138 109.066 202.11 107.219 201.582C105.372 201.054 103.697 200.045 102.362 198.656L57.1046 151.791C55.7417 150.391 54.7777 148.649 54.3134 146.746C53.8491 144.843 53.9015 142.849 54.4653 140.973V140.973Z" fill="white"/>
<path d="M111.336 147.827C107.921 147.898 104.547 147.058 101.555 145.392C98.7475 143.803 96.4291 141.462 94.8559 138.626C93.2579 135.555 92.4229 132.138 92.4229 128.669C92.4229 125.2 93.2579 121.783 94.8559 118.712C96.4309 115.878 98.7489 113.537 101.555 111.946C104.547 110.28 107.921 109.44 111.336 109.51C115.532 109.37 119.653 110.657 123.038 113.164C126.238 115.641 128.405 119.237 129.112 123.245H119.242C118.8 121.554 117.779 120.076 116.361 119.073C114.855 118.06 113.079 117.533 111.269 117.562C110.029 117.548 108.8 117.805 107.667 118.315C106.534 118.825 105.523 119.576 104.704 120.516C102.788 122.798 101.82 125.739 102.002 128.725C101.822 131.711 102.79 134.652 104.704 136.934C105.523 137.875 106.534 138.626 107.667 139.136C108.8 139.646 110.029 139.903 111.269 139.889C113.077 139.924 114.852 139.405 116.361 138.4C117.8 137.408 118.825 135.914 119.242 134.206H129.112C128.342 138.158 126.185 141.698 123.038 144.174C119.666 146.707 115.536 147.997 111.336 147.827V147.827Z" fill="#1D3142"/>
<path d="M152.873 126.425L164.017 110.367H154.459L147.983 119.546L152.873 126.425Z" fill="url(#paint1_linear_1962_9544)"/>
<path d="M164.084 146.993L151.958 129.875L146.308 121.914L146.285 121.937L138.157 110.367H128.085L141.306 128.657L128.085 146.948H138.157L146.218 135.491L154.66 147.196L164.084 146.993Z" fill="#1D3142"/>
<defs>
<linearGradient id="paint0_linear_1962_9544" x1="5.77303" y1="158.884" x2="254.563" y2="97.1198" gradientUnits="userSpaceOnUse">
<stop stop-color="#F5EB07"/>
<stop offset="1" stop-color="#F3C91A"/>
</linearGradient>
<linearGradient id="paint1_linear_1962_9544" x1="147.983" y1="118.396" x2="164.017" y2="118.396" gradientUnits="userSpaceOnUse">
<stop stop-color="#F16B24"/>
<stop offset="1" stop-color="#D52C71"/>
</linearGradient>
</defs>
</svg>
